<svg width="31" height="39" viewBox="0 0 31 39" fill="none" xmlns="http://www.w3.org/2000/svg">
<path d="M29.1981 23.5195H27.1981V11.9632C27.1981 11.6864 27.1407 11.4126 27.0294 11.1592C26.9182 10.9057 26.7556 10.6781 26.5518 10.4907L16.5518 1.05572C16.5469 1.05145 16.5423 1.04686 16.5381 1.04197C16.1699 0.707132 15.6901 0.521591 15.1924 0.521591C14.6948 0.521591 14.215 0.707132 13.8468 1.04197L13.8331 1.05572L3.84431 10.4907C3.64056 10.6781 3.47791 10.9057 3.36667 11.1592C3.25543 11.4126 3.19802 11.6864 3.19806 11.9632V23.5195H1.19806C0.932843 23.5195 0.678489 23.6248 0.490952 23.8124C0.303416 23.9999 0.198059 24.2542 0.198059 24.5195C0.198059 24.7847 0.303416 25.039 0.490952 25.2266C0.678489 25.4141 0.932843 25.5195 1.19806 25.5195H29.1981C29.4633 25.5195 29.7176 25.4141 29.9052 25.2266C30.0927 25.039 30.1981 24.7847 30.1981 24.5195C30.1981 24.2542 30.0927 23.9999 29.9052 23.8124C29.7176 23.6248 29.4633 23.5195 29.1981 23.5195ZM5.19806 11.9632L5.21181 11.9507L15.1981 2.51947L25.1856 11.9482L25.1993 11.9607V23.5195H19.1981V17.5195C19.1981 16.989 18.9873 16.4803 18.6123 16.1053C18.2372 15.7302 17.7285 15.5195 17.1981 15.5195H13.1981C12.6676 15.5195 12.1589 15.7302 11.7838 16.1053C11.4088 16.4803 11.1981 16.989 11.1981 17.5195V23.5195H5.19806V11.9632ZM17.1981 23.5195H13.1981V17.5195H17.1981V23.5195Z" fill="#8b7328"/>
<path d="M3.32688 23.2802C3.85343 22.2334 4.62099 21.3264 5.56692 20.6333C6.51284 19.9401 7.6103 19.4805 8.76969 19.292C9.92908 19.1034 11.1175 19.1913 12.238 19.5484C13.3585 19.9055 14.3792 20.5217 15.2169 21.3467L22.405 18.9764C22.4978 18.9459 22.5958 18.9339 22.6933 18.9411C22.7909 18.9484 22.8861 18.9748 22.9736 19.0188L26.3035 20.6899C26.4801 20.7785 26.6144 20.9335 26.6769 21.1206C26.7393 21.3077 26.7248 21.5117 26.6364 21.6877L24.9714 25.0054C24.8831 25.1814 24.7282 25.3149 24.5409 25.3767C24.3536 25.4385 24.1491 25.4234 23.9724 25.3347L22.6405 24.6663L21.9745 25.9933C21.8862 26.1693 21.7313 26.3029 21.5439 26.3646C21.3566 26.4264 21.1521 26.4113 20.9755 26.3227L19.6435 25.6542L18.9775 26.9813C18.9338 27.0685 18.8734 27.1462 18.7995 27.21C18.7257 27.2738 18.6399 27.3224 18.5471 27.353L17.3525 27.7461C17.192 28.8072 16.8028 29.8204 16.2118 30.7157C15.6207 31.6111 14.8419 32.3675 13.9288 32.9327C13.0157 33.498 11.9901 33.8587 10.9226 33.9901C9.85512 34.1214 8.7711 34.0203 7.74519 33.6937C6.71929 33.367 5.77586 32.8226 4.97988 32.0979C4.1839 31.3732 3.55428 30.4854 3.13436 29.4957C2.71444 28.506 2.5142 27.4379 2.54744 26.3649C2.58068 25.2919 2.84659 24.2395 3.32688 23.2802ZM15.3146 29.2963C15.6528 28.6252 15.8595 27.8955 15.9235 27.1463C15.9316 26.9975 15.9844 26.8547 16.075 26.7365C16.1655 26.6183 16.2897 26.53 16.4314 26.4833L17.7833 26.0383L18.6446 24.3222C18.7329 24.1462 18.8877 24.0127 19.0751 23.9509C19.2624 23.8891 19.4669 23.9043 19.6436 23.9929L20.9755 24.6613L21.6415 23.3343C21.7298 23.1583 21.8847 23.0247 22.072 22.963C22.2594 22.9012 22.4639 22.9163 22.6405 23.0049L23.9725 23.6734L24.9715 21.6828L22.5831 20.4841L15.2376 22.9063C15.0959 22.9529 14.9433 22.956 14.7996 22.9149C14.6559 22.8739 14.5278 22.7908 14.4318 22.6763C13.5834 21.7252 12.4524 21.0697 11.2051 20.8062C9.95772 20.5427 8.65973 20.6849 7.50175 21.2121C6.34376 21.7393 5.3868 22.6236 4.77143 23.7352C4.15607 24.8467 3.91472 26.1269 4.08284 27.3877C4.25097 28.6486 4.8197 29.8236 5.70551 30.7401C6.59132 31.6567 7.74751 32.2666 9.00428 32.4801C10.261 32.6937 11.5521 32.4997 12.6879 31.9267C13.8237 31.3536 14.7443 30.4317 15.3146 29.2963ZM6.98973 28.4411C7.18731 28.5403 7.40975 28.5788 7.62891 28.5519C7.84808 28.525 8.05413 28.4338 8.22102 28.2899C8.3879 28.146 8.50811 27.9558 8.56646 27.7433C8.62481 27.5309 8.61867 27.3058 8.54882 27.0965C8.47897 26.8872 8.34854 26.7031 8.17403 26.5674C7.99953 26.4318 7.78877 26.3507 7.56843 26.3344C7.34808 26.3181 7.12804 26.3674 6.93613 26.476C6.74422 26.5846 6.58906 26.7476 6.49026 26.9445C6.35779 27.2084 6.33598 27.5144 6.42965 27.7951C6.52332 28.0758 6.72479 28.3082 6.98973 28.4411Z" fill="#f1c646"/>
</svg>
