<svg width="27" height="27" viewBox="0 0 27 27" fill="none" xmlns="http://www.w3.org/2000/svg">
<path d="M13.2832 0.555298C10.712 0.555298 8.19859 1.31773 6.06075 2.74619C3.92291 4.17465 2.25667 6.20497 1.27273 8.58041C0.28879 10.9559 0.0313467 13.5697 0.532955 16.0915C1.03456 18.6132 2.27269 20.9296 4.09078 22.7477C5.90886 24.5658 8.22524 25.8039 10.747 26.3055C13.2687 26.8071 15.8826 26.5497 18.258 25.5657C20.6335 24.5818 22.6638 22.9155 24.0923 20.7777C25.5207 18.6399 26.2832 16.1265 26.2832 13.5553C26.2795 10.1086 24.9087 6.80411 22.4715 4.36693C20.0343 1.92975 16.7299 0.558938 13.2832 0.555298ZM6.54316 22.2428C7.26658 21.1114 8.26317 20.1803 9.44106 19.5354C10.619 18.8904 11.9403 18.5524 13.2832 18.5524C14.6261 18.5524 15.9474 18.8904 17.1253 19.5354C18.3032 20.1803 19.2997 21.1114 20.0232 22.2428C18.0961 23.7415 15.7244 24.5552 13.2832 24.5552C10.8419 24.5552 8.47024 23.7415 6.54316 22.2428ZM9.28316 12.5553C9.28316 11.7642 9.51776 10.9908 9.95728 10.333C10.3968 9.67522 11.0215 9.16253 11.7524 8.85978C12.4833 8.55703 13.2876 8.47782 14.0635 8.63216C14.8394 8.7865 15.5522 9.16746 16.1116 9.72687C16.671 10.2863 17.052 10.999 17.2063 11.7749C17.3606 12.5509 17.2814 13.3551 16.9787 14.086C16.6759 14.8169 16.1632 15.4417 15.5054 15.8812C14.8476 16.3207 14.0743 16.5553 13.2832 16.5553C12.2223 16.5553 11.2049 16.1339 10.4547 15.3837C9.70459 14.6336 9.28316 13.6162 9.28316 12.5553ZM21.5032 20.8565C20.3879 19.2404 18.8196 17.9901 16.9957 17.2628C17.9754 16.4911 18.6904 15.4333 19.0411 14.2364C19.3918 13.0396 19.3608 11.7632 18.9524 10.5847C18.5441 9.4063 17.7786 8.3844 16.7626 7.66116C15.7465 6.93792 14.5303 6.54927 13.2832 6.54927C12.036 6.54927 10.8198 6.93792 9.80374 7.66116C8.78768 8.3844 8.02225 9.4063 7.6139 10.5847C7.20554 11.7632 7.17456 13.0396 7.52525 14.2364C7.87595 15.4333 8.59089 16.4911 9.57066 17.2628C7.74669 17.9901 6.17845 19.2404 5.06316 20.8565C3.65387 19.2718 2.73275 17.3134 2.41072 15.2172C2.08869 13.121 2.37947 10.9764 3.24806 9.04167C4.11665 7.10693 5.526 5.46452 7.30642 4.31222C9.08683 3.15992 11.1624 2.54686 13.2832 2.54686C15.4039 2.54686 17.4795 3.15992 19.2599 4.31222C21.0403 5.46452 22.4497 7.10693 23.3183 9.04167C24.1869 10.9764 24.4776 13.121 24.1556 15.2172C23.8336 17.3134 22.9125 19.2718 21.5032 20.8565Z" fill="#6D6B6B"/>
</svg>
