<svg width="30" height="22" viewBox="0 0 30 22" fill="none" xmlns="http://www.w3.org/2000/svg">
<path d="M30 11C30.0063 13.3814 29.2337 15.6997 27.8 17.6012C27.721 17.7063 27.6222 17.7948 27.509 17.8616C27.3959 17.9284 27.2707 17.9724 27.1405 17.9908C27.0104 18.0093 26.8779 18.0019 26.7507 17.9692C26.6234 17.9364 26.5038 17.8789 26.3988 17.8C26.2937 17.721 26.2052 17.6221 26.1384 17.509C26.0715 17.3958 26.0276 17.2706 26.0092 17.1405C25.9907 17.0104 25.9981 16.8779 26.0308 16.7506C26.0636 16.6234 26.1211 16.5038 26.2 16.3987C27.3735 14.844 28.0057 12.9478 28 11C28 8.61303 27.0518 6.32384 25.364 4.63601C23.6761 2.94819 21.387 1.99997 19 1.99997C16.6131 1.99997 14.3239 2.94819 12.636 4.63601C10.9482 6.32384 10 8.61303 10 11C10 11.2652 9.89465 11.5195 9.70711 11.7071C9.51958 11.8946 9.26522 12 9.00001 12C8.73479 12 8.48044 11.8946 8.2929 11.7071C8.10536 11.5195 8.00001 11.2652 8.00001 11C7.99952 9.99082 8.1379 8.9864 8.41126 8.01497C8.27501 7.99997 8.13751 7.99997 8.00001 7.99997C6.40871 7.99997 4.88258 8.63212 3.75737 9.75733C2.63215 10.8826 2.00001 12.4087 2.00001 14C2.00001 15.5913 2.63215 17.1174 3.75737 18.2426C4.88258 19.3678 6.40871 20 8.00001 20H11C11.2652 20 11.5196 20.1053 11.7071 20.2929C11.8946 20.4804 12 20.7348 12 21C12 21.2652 11.8946 21.5195 11.7071 21.7071C11.5196 21.8946 11.2652 22 11 22H8.00001C6.90023 22.0002 5.8122 21.7737 4.8039 21.3346C3.79559 20.8955 2.88865 20.2532 2.13972 19.4478C1.3908 18.6424 0.815976 17.6913 0.451154 16.6538C0.0863316 15.6162 -0.0606526 14.5147 0.019381 13.4178C0.0994145 12.3209 0.404747 11.2523 0.916308 10.2788C1.42787 9.30522 2.13467 8.4476 2.99257 7.75946C3.85047 7.07133 4.84104 6.56748 5.90241 6.27937C6.96378 5.99126 8.07316 5.92508 9.16126 6.08497C10.2693 3.86892 12.0929 2.09182 14.3369 1.04151C16.5809 -0.00878942 19.1137 -0.270779 21.5252 0.297981C23.9366 0.866741 26.0854 2.23294 27.6236 4.17529C29.1617 6.11763 29.9991 8.52236 30 11ZM18.7075 10.2925C18.6146 10.1995 18.5043 10.1257 18.3829 10.0754C18.2615 10.0251 18.1314 9.99919 18 9.99919C17.8686 9.99919 17.7385 10.0251 17.6171 10.0754C17.4957 10.1257 17.3854 10.1995 17.2925 10.2925L13.2925 14.2925C13.1996 14.3854 13.1259 14.4957 13.0756 14.6171C13.0253 14.7385 12.9995 14.8686 12.9995 15C12.9995 15.1314 13.0253 15.2615 13.0756 15.3829C13.1259 15.5043 13.1996 15.6146 13.2925 15.7075C13.4801 15.8951 13.7346 16.0005 14 16.0005C14.1314 16.0005 14.2615 15.9746 14.3829 15.9244C14.5043 15.8741 14.6146 15.8004 14.7075 15.7075L17 13.4137V21C17 21.2652 17.1054 21.5195 17.2929 21.7071C17.4804 21.8946 17.7348 22 18 22C18.2652 22 18.5196 21.8946 18.7071 21.7071C18.8947 21.5195 19 21.2652 19 21V13.4137L21.2925 15.7075C21.3854 15.8004 21.4957 15.8741 21.6171 15.9244C21.7385 15.9746 21.8686 16.0005 22 16.0005C22.1314 16.0005 22.2615 15.9746 22.3829 15.9244C22.5043 15.8741 22.6146 15.8004 22.7075 15.7075C22.8004 15.6146 22.8741 15.5043 22.9244 15.3829C22.9747 15.2615 23.0006 15.1314 23.0006 15C23.0006 14.8686 22.9747 14.7385 22.9244 14.6171C22.8741 14.4957 22.8004 14.3854 22.7075 14.2925L18.7075 10.2925Z" fill="#6890AB"/>
</svg>
